<svg width="150" height="73" viewBox="0 0 150 73" fill="none" xmlns="http://www.w3.org/2000/svg">
<path d="M32.5442 53.5629C32.5442 52.4182 31.5044 51.4951 30.236 51.4951H18.0162C16.7404 51.4951 15.708 52.4256 15.708 53.5629C15.708 54.7001 16.7478 55.6306 18.0162 55.6306H30.2286C31.5044 55.6306 32.5369 54.7001 32.5369 53.5629H32.5442Z" fill="black"/>
<path d="M19.6829 58.5108C18.4071 58.5108 17.3746 59.3526 17.3746 60.3865C17.3746 61.4204 18.4145 62.2623 19.6829 62.2623H28.5619C29.8378 62.2623 30.8702 61.4204 30.8702 60.3865C30.8702 59.3526 29.8304 58.5108 28.5619 58.5108H19.6829Z" fill="black"/>
<path d="M29.7566 66.9813C29.7566 66.9813 29.7566 66.9444 29.7566 66.9222C29.6903 66.1468 28.8569 65.5265 27.8319 65.5265H20.4204C19.4027 65.5265 18.5619 66.1468 18.4956 66.9222C18.4956 66.9222 18.4956 66.9591 18.4956 66.9813C18.4956 66.9961 18.4956 67.0108 18.4956 67.0256C18.4956 67.3801 18.6578 67.705 18.9233 67.9635L22.9277 72.4757C23.326 72.9262 23.9676 73.1182 24.587 72.9409C24.8894 72.8523 25.1549 72.6751 25.354 72.4461L29.3363 67.9709C29.6018 67.7124 29.764 67.3875 29.764 67.0404C29.764 67.0256 29.764 67.0108 29.764 66.9961L29.7566 66.9813Z" fill="black"/>
<path d="M46.003 20.4415H42.9794C42.4853 17.7755 41.4454 15.3016 39.9853 13.1452L42.1091 11.0183C42.9056 10.2207 42.9056 8.93576 42.1091 8.13819L39.8894 5.91533C39.0929 5.11775 37.8097 5.11775 37.0133 5.91533L34.9041 8.02742C32.7507 6.55043 30.2802 5.49439 27.6032 4.98483V2.03085C27.6032 0.915731 26.6888 0 25.5752 0H22.441C21.3274 0 20.413 0.915731 20.413 2.03085V5.00698C17.7507 5.51654 15.2802 6.5652 13.1121 8.04957L11.003 5.93748C10.2065 5.13991 8.9233 5.13991 8.12684 5.93748L5.90708 8.16034C5.11062 8.95792 5.11062 10.2429 5.90708 11.0405L8.03097 13.1673C6.56342 15.3237 5.53097 17.7977 5.03687 20.4636H2.02802C0.914454 20.4636 0 21.3794 0 22.4945V25.6331C0 26.7482 0.914454 27.6639 2.02802 27.6639H5.08112C5.58997 30.3151 6.63717 32.7669 8.10472 34.9085L5.9292 37.0871C5.13274 37.8847 5.13274 39.1697 5.9292 39.9672L8.14897 42.1901C8.94543 42.9877 10.2286 42.9877 11.0251 42.1901L13.2153 39.9968C13.503 40.1888 14.0413 40.5211 14.6386 40.8756V44.2948C14.6386 46.6801 16.5782 48.6224 18.9602 48.6224H29.2994C31.6814 48.6224 33.6209 46.6801 33.6209 44.2948V40.9642C34.1298 40.5506 34.5796 40.1814 34.8525 39.9968L37.0428 42.1901C37.8392 42.9877 39.1224 42.9877 39.9189 42.1901L42.1386 39.9672C42.9351 39.1697 42.9351 37.8847 42.1386 37.0871L39.9631 34.9085C41.4307 32.7669 42.4779 30.3225 42.9867 27.6639H46.0398C47.1534 27.6639 48.0679 26.7482 48.0679 25.6331V22.4871C48.0384 21.372 47.1239 20.4562 46.0103 20.4562L46.003 20.4415ZM30.5678 34.6944L29.6091 35.2483C28.9159 35.647 28.4145 36.5258 28.4145 37.3234V43.4012H19.823V38.4312V37.3234C19.823 36.5258 19.3215 35.647 18.6357 35.2483L17.677 34.687C13.6283 32.3238 11.2094 28.1661 11.2094 23.5579C11.2094 16.4241 17.0059 10.6269 24.1224 10.6269C31.2389 10.6269 37.0354 16.4315 37.0354 23.5579C37.0354 28.1661 34.6165 32.3238 30.5678 34.687V34.6944Z" fill="black"/>
<path d="M68.7168 9.12038V20.9363H65.4572V9.12038H60.9513V6.11472H73.2153V9.12038H68.7094H68.7168Z" fill="black"/>
<path d="M83.0752 20.9363V14.6074C83.0752 13.0861 82.3599 12.3033 81.1283 12.3033C79.8968 12.3033 79.1224 13.0861 79.1224 14.6074V20.9363H75.9071V5.47961H79.1224V11.1955C79.8599 10.2429 80.8112 9.37147 82.441 9.37147C84.8746 9.37147 86.2906 10.9814 86.2906 13.5883V20.9363H83.0752Z" fill="black"/>
<path d="M100.14 16.3872H92.2566C92.5737 17.8494 93.5914 18.61 95.0295 18.61C96.1062 18.61 96.8879 18.2703 97.7802 17.4432L99.6165 19.0753C98.562 20.3898 97.0354 21.1947 94.9853 21.1947C91.5782 21.1947 89.0634 18.802 89.0634 15.3311V15.2868C89.0634 12.0448 91.3643 9.37886 94.6681 9.37886C98.4513 9.37886 100.184 12.3254 100.184 15.5379V15.5822C100.184 15.8998 100.162 16.0918 100.14 16.3872ZM94.6608 11.9636C93.326 11.9636 92.4631 12.9162 92.205 14.3785H97.0502C96.8584 12.9384 96.0103 11.9636 94.6608 11.9636Z" fill="black"/>
<path d="M72.4853 46.4733V36.7991L68.3186 43.128H68.2375L64.115 36.8582V46.4733H60.9218V31.6518H64.4322L68.326 37.9216L72.2198 31.6518H75.7301V46.4733H72.4926H72.4853Z" fill="black"/>
<path d="M86.0988 46.4733V45.2474C85.3171 46.1189 84.2404 46.6875 82.677 46.6875C80.5383 46.6875 78.7832 45.4616 78.7832 43.2166V43.1723C78.7832 40.6983 80.6637 39.5537 83.3481 39.5537C84.4911 39.5537 85.3171 39.7457 86.1209 40.0189V39.8269C86.1209 38.4902 85.295 37.7517 83.6873 37.7517C82.4631 37.7517 81.5929 37.9881 80.5605 38.3647L79.7566 35.9055C81.003 35.3516 82.2345 34.9972 84.1519 34.9972C87.6622 34.9972 89.2035 36.8212 89.2035 39.886V46.4733H86.0988ZM86.1652 41.9021C85.6121 41.651 84.8968 41.4811 84.115 41.4811C82.7434 41.4811 81.8953 42.035 81.8953 43.0467V43.091C81.8953 43.9625 82.6106 44.4646 83.6504 44.4646C85.1549 44.4646 86.1652 43.6375 86.1652 42.4707V41.9021Z" fill="black"/>
<path d="M97.8614 46.7244C94.4543 46.7244 91.9617 44.1028 91.9617 40.8608V40.8165C91.9617 37.5745 94.4322 34.9085 97.9056 34.9085C100.044 34.9085 101.372 35.6249 102.434 36.8138L100.465 38.9333C99.7419 38.1727 99.0266 37.6853 97.8835 37.6853C96.2758 37.6853 95.1327 39.1032 95.1327 40.7796V40.8239C95.1327 42.5593 96.2537 43.9551 98.0089 43.9551C99.0855 43.9551 99.8304 43.4898 100.612 42.7513L102.493 44.6566C101.394 45.8604 100.125 46.7318 97.8614 46.7318V46.7244Z" fill="black"/>
<path d="M112.279 46.4733V40.1445C112.279 38.6232 111.563 37.8404 110.332 37.8404C109.1 37.8404 108.326 38.6232 108.326 40.1445V46.4733H105.111V31.0167H108.326V36.7326C109.063 35.78 110.015 34.9159 111.645 34.9159C114.078 34.9159 115.494 36.5258 115.494 39.1327V46.4807H112.279V46.4733Z" fill="black"/>
<path d="M118.879 33.8747V31.0167H122.264V33.8747H118.879ZM118.96 46.4733V35.1227H122.176V46.4733H118.96Z" fill="black"/>
<path d="M132.898 46.4733V40.1445C132.898 38.6232 132.183 37.8404 130.951 37.8404C129.72 37.8404 128.945 38.6232 128.945 40.1445V46.4733H125.73V35.1227H128.945V36.7326C129.683 35.78 130.634 34.9159 132.264 34.9159C134.698 34.9159 136.114 36.5258 136.114 39.1327V46.4807H132.898V46.4733Z" fill="black"/>
<path d="M149.956 41.9168H142.072C142.389 43.379 143.407 44.1397 144.845 44.1397C145.922 44.1397 146.704 43.8 147.596 42.9729L149.432 44.6049C148.378 45.9195 146.851 46.7244 144.801 46.7244C141.394 46.7244 138.879 44.3317 138.879 40.8608V40.8165C138.879 37.5745 141.18 34.9085 144.484 34.9085C148.267 34.9085 150 37.8477 150 41.0676V41.1119C150 41.4294 149.978 41.6214 149.956 41.9168ZM144.476 37.4933C143.142 37.4933 142.279 38.4459 142.021 39.9081H146.866C146.674 38.4681 145.826 37.4933 144.476 37.4933Z" fill="black"/>
<path d="M66.3791 71.523C65.3909 71.523 64.4395 71.3975 63.5177 71.1538C62.6032 70.9027 61.8584 70.5851 61.2832 70.1937L62.4041 67.6681C62.9425 68.0152 63.5693 68.2958 64.2773 68.5247C64.9853 68.7537 65.6932 68.8644 66.3938 68.8644C66.8658 68.8644 67.2493 68.8201 67.5369 68.7315C67.8245 68.6429 68.031 68.5321 68.1637 68.3844C68.2965 68.2441 68.3628 68.0743 68.3628 67.8749C68.3628 67.5942 68.2375 67.3801 67.9867 67.2176C67.736 67.0551 67.4041 66.9222 67.0059 66.8188C66.6003 66.7154 66.1578 66.612 65.6637 66.5086C65.177 66.4053 64.6829 66.2723 64.1962 66.1099C63.7094 65.9474 63.2596 65.7406 62.854 65.4821C62.4484 65.2237 62.1239 64.884 61.8732 64.463C61.6224 64.0421 61.4897 63.5104 61.4897 62.8605C61.4897 62.1368 61.6888 61.4795 62.087 60.8887C62.4853 60.2979 63.0826 59.8253 63.8717 59.4708C64.6681 59.1163 65.6563 58.9317 66.8437 58.9317C67.6401 58.9317 68.4145 59.0203 69.1814 59.1976C69.9484 59.3748 70.6268 59.6407 71.2316 59.9878L70.177 62.5282C69.6018 62.218 69.0339 61.9817 68.4661 61.8266C67.8982 61.6715 67.3525 61.5903 66.8289 61.5903C66.3569 61.5903 65.9735 61.642 65.6858 61.738C65.3982 61.834 65.1917 61.9669 65.0664 62.1294C64.941 62.2919 64.8746 62.4765 64.8746 62.6833C64.8746 62.9491 65 63.1559 65.2434 63.3184C65.4867 63.4808 65.8186 63.599 66.2242 63.7024C66.6298 63.8058 67.0796 63.9018 67.5737 64.0052C68.0605 64.1085 68.5546 64.2415 69.0413 64.3966C69.528 64.5516 69.9779 64.7584 70.3761 65.0169C70.7817 65.2754 71.1062 65.6151 71.3496 66.036C71.5929 66.457 71.7183 66.9887 71.7183 67.6164C71.7183 68.318 71.5192 68.9678 71.1209 69.5586C70.7227 70.1494 70.1327 70.6294 69.3437 70.9839C68.5546 71.3384 67.559 71.523 66.3643 71.523H66.3791Z" fill="black"/>
<path d="M80.177 71.2793H76.7552V59.168H80.177V71.2793ZM85.0811 66.5604H79.9336V63.7245H85.0811V66.5604ZM84.8378 59.1754H88.2596V71.2867H84.8378V59.1754Z" fill="black"/>
<path d="M100.236 71.523C99.2699 71.523 98.3776 71.3679 97.559 71.0578C96.7404 70.7476 96.0324 70.3045 95.4277 69.7359C94.823 69.1672 94.351 68.5026 94.0192 67.7345C93.6873 66.9665 93.5177 66.1394 93.5177 65.2237C93.5177 64.3079 93.6873 63.4734 94.0192 62.7128C94.351 61.9521 94.823 61.2875 95.4277 60.7115C96.0324 60.1428 96.7404 59.6997 97.559 59.3896C98.3776 59.0794 99.2699 58.9243 100.236 58.9243C101.202 58.9243 102.109 59.0794 102.92 59.3896C103.732 59.6997 104.44 60.1428 105.037 60.7115C105.634 61.2801 106.106 61.9448 106.445 62.7128C106.785 63.4734 106.954 64.3079 106.954 65.2237C106.954 66.1394 106.785 66.9739 106.445 67.7419C106.106 68.51 105.634 69.1746 105.037 69.7433C104.44 70.3119 103.732 70.7476 102.92 71.0578C102.109 71.3679 101.209 71.523 100.236 71.523ZM100.236 68.6872C100.693 68.6872 101.128 68.606 101.527 68.4435C101.925 68.281 102.271 68.0521 102.566 67.7419C102.861 67.4392 103.09 67.0699 103.26 66.6416C103.429 66.2133 103.51 65.7406 103.51 65.2237C103.51 64.7067 103.429 64.2193 103.26 63.7984C103.09 63.3774 102.861 63.0156 102.566 62.7054C102.271 62.4026 101.925 62.1663 101.527 62.0038C101.128 61.8414 100.701 61.7601 100.236 61.7601C99.7714 61.7601 99.3437 61.8414 98.9528 62.0038C98.5546 62.1663 98.208 62.4026 97.913 62.7054C97.618 63.0082 97.3894 63.3774 97.2198 63.7984C97.0502 64.2193 96.969 64.692 96.969 65.2237C96.969 65.7554 97.0502 66.2133 97.2198 66.6416C97.3894 67.0699 97.618 67.4318 97.913 67.7419C98.208 68.0447 98.5546 68.281 98.9528 68.4435C99.351 68.606 99.7788 68.6872 100.236 68.6872Z" fill="black"/>
<path d="M112.205 71.2793V59.168H117.736C118.842 59.168 119.794 59.3453 120.597 59.7071C121.401 60.0616 122.013 60.5786 122.456 61.258C122.891 61.93 123.112 62.735 123.112 63.6507C123.112 64.5664 122.891 65.3492 122.456 66.0213C122.021 66.6933 121.401 67.2028 120.597 67.5721C119.801 67.934 118.842 68.1186 117.736 68.1186H114.108L115.627 66.6342V71.2867H112.205V71.2793ZM115.627 66.9887L114.108 65.4157H117.529C118.245 65.4157 118.776 65.2606 119.13 64.9504C119.484 64.6403 119.653 64.2046 119.653 63.6507C119.653 63.0968 119.476 62.6463 119.13 62.3362C118.776 62.026 118.245 61.8709 117.529 61.8709H114.108L115.627 60.2979V66.9887Z" fill="black"/>
</svg>

