<svg width="151" height="73" viewBox="0 0 151 73" fill="none" xmlns="http://www.w3.org/2000/svg">
<path d="M33.2942 53.5629C33.2942 52.4182 32.2544 51.4951 30.986 51.4951H18.7662C17.4904 51.4951 16.458 52.4256 16.458 53.5629C16.458 54.7001 17.4978 55.6306 18.7662 55.6306H30.9786C32.2544 55.6306 33.2869 54.7001 33.2869 53.5629H33.2942Z" fill="black"/>
<path d="M20.4329 58.5108C19.1571 58.5108 18.1246 59.3526 18.1246 60.3865C18.1246 61.4204 19.1645 62.2623 20.4329 62.2623H29.3119C30.5878 62.2623 31.6202 61.4204 31.6202 60.3865C31.6202 59.3526 30.5804 58.5108 29.3119 58.5108H20.4329V58.5108Z" fill="black"/>
<path d="M30.5066 66.9813C30.5066 66.9813 30.5066 66.9444 30.5066 66.9222C30.4403 66.1468 29.6069 65.5265 28.5819 65.5265H21.1704C20.1527 65.5265 19.3119 66.1468 19.2456 66.9222C19.2456 66.9222 19.2456 66.9591 19.2456 66.9813C19.2456 66.9961 19.2456 67.0108 19.2456 67.0256C19.2456 67.3801 19.4078 67.705 19.6733 67.9635L23.6777 72.4757C24.076 72.9262 24.7176 73.1182 25.337 72.9409C25.6394 72.8523 25.9049 72.6751 26.104 72.4461L30.0863 67.9709C30.3518 67.7124 30.514 67.3875 30.514 67.0404C30.514 67.0256 30.514 67.0108 30.514 66.9961L30.5066 66.9813Z" fill="black"/>
<path d="M46.753 20.4415H43.7294C43.2353 17.7755 42.1954 15.3016 40.7353 13.1452L42.8591 11.0183C43.6556 10.2207 43.6556 8.93576 42.8591 8.13819L40.6394 5.91533C39.8429 5.11775 38.5597 5.11775 37.7633 5.91533L35.6541 8.02742C33.5007 6.55043 31.0302 5.49439 28.3532 4.98483V2.03085C28.3532 0.915731 27.4388 0 26.3252 0H23.191C22.0774 0 21.163 0.915731 21.163 2.03085V5.00698C18.5007 5.51654 16.0302 6.5652 13.8621 8.04957L11.753 5.93748C10.9565 5.13991 9.6733 5.13991 8.87684 5.93748L6.65708 8.16034C5.86062 8.95792 5.86062 10.2429 6.65708 11.0405L8.78097 13.1673C7.31342 15.3237 6.28097 17.7977 5.78687 20.4636H2.77802C1.66445 20.4636 0.75 21.3794 0.75 22.4945V25.6331C0.75 26.7482 1.66445 27.6639 2.77802 27.6639H5.83112C6.33997 30.3151 7.38717 32.7669 8.85472 34.9085L6.6792 37.0871C5.88274 37.8847 5.88274 39.1697 6.6792 39.9672L8.89897 42.1901C9.69543 42.9877 10.9786 42.9877 11.7751 42.1901L13.9653 39.9968C14.253 40.1888 14.7913 40.5211 15.3886 40.8756V44.2948C15.3886 46.6801 17.3282 48.6224 19.7102 48.6224H30.0494C32.4314 48.6224 34.3709 46.6801 34.3709 44.2948V40.9642C34.8798 40.5506 35.3296 40.1814 35.6025 39.9968L37.7928 42.1901C38.5892 42.9877 39.8724 42.9877 40.6689 42.1901L42.8886 39.9672C43.6851 39.1697 43.6851 37.8847 42.8886 37.0871L40.7131 34.9085C42.1807 32.7669 43.2279 30.3225 43.7367 27.6639H46.7898C47.9034 27.6639 48.8179 26.7482 48.8179 25.6331V22.4871C48.7884 21.372 47.8739 20.4562 46.7603 20.4562L46.753 20.4415ZM31.3178 34.6944L30.3591 35.2483C29.6659 35.647 29.1645 36.5258 29.1645 37.3234V43.4012H20.573V38.4312V37.3234C20.573 36.5258 20.0715 35.647 19.3857 35.2483L18.427 34.687C14.3783 32.3238 11.9594 28.1661 11.9594 23.5579C11.9594 16.4241 17.7559 10.6269 24.8724 10.6269C31.9889 10.6269 37.7854 16.4315 37.7854 23.5579C37.7854 28.1661 35.3665 32.3238 31.3178 34.687V34.6944Z" fill="black"/>
<path d="M25.632 13.0935C19.4816 13.0935 14.4742 18.1078 14.4742 24.2669C14.4742 25.1457 15.1895 25.862 16.0671 25.862C16.9447 25.862 17.66 25.1457 17.66 24.2669C17.66 19.8655 21.2367 16.2911 25.6246 16.2911C26.5022 16.2911 27.2175 15.5748 27.2175 14.696C27.2175 13.8172 26.5022 13.1009 25.6246 13.1009L25.632 13.0935Z" fill="black"/>
<path d="M69.4668 9.12038V20.9363H66.2072V9.12038H61.7013V6.11472H73.9653V9.12038H69.4594H69.4668Z" fill="black"/>
<path d="M83.8252 20.9363V14.6074C83.8252 13.0861 83.1099 12.3033 81.8783 12.3033C80.6468 12.3033 79.8724 13.0861 79.8724 14.6074V20.9363H76.6571V5.47961H79.8724V11.1955C80.6099 10.2429 81.5612 9.37147 83.191 9.37147C85.6246 9.37147 87.0406 10.9814 87.0406 13.5883V20.9363H83.8252V20.9363Z" fill="black"/>
<path d="M100.89 16.3872H93.0066C93.3237 17.8494 94.3414 18.61 95.7795 18.61C96.8562 18.61 97.6379 18.2703 98.5302 17.4432L100.367 19.0753C99.312 20.3898 97.7854 21.1947 95.7353 21.1947C92.3282 21.1947 89.8134 18.802 89.8134 15.3311V15.2868C89.8134 12.0448 92.1143 9.37886 95.4181 9.37886C99.2013 9.37886 100.934 12.3254 100.934 15.5379V15.5822C100.934 15.8998 100.912 16.0918 100.89 16.3872V16.3872ZM95.4108 11.9636C94.076 11.9636 93.2131 12.9162 92.955 14.3785H97.8002C97.6084 12.9384 96.7603 11.9636 95.4108 11.9636Z" fill="black"/>
<path d="M73.2353 46.4733V36.7991L69.0686 43.128H68.9875L64.865 36.8582V46.4733H61.6718V31.6518H65.1822L69.076 37.9216L72.9698 31.6518H76.4801V46.4733H73.2426H73.2353Z" fill="black"/>
<path d="M86.8488 46.4733V45.2474C86.0671 46.1189 84.9904 46.6875 83.427 46.6875C81.2883 46.6875 79.5332 45.4616 79.5332 43.2166V43.1723C79.5332 40.6983 81.4137 39.5537 84.0981 39.5537C85.2411 39.5537 86.0671 39.7457 86.8709 40.0189V39.8269C86.8709 38.4902 86.045 37.7517 84.4373 37.7517C83.2131 37.7517 82.3429 37.9881 81.3105 38.3647L80.5066 35.9055C81.753 35.3516 82.9845 34.9972 84.9019 34.9972C88.4122 34.9972 89.9535 36.8212 89.9535 39.886V46.4733H86.8488V46.4733ZM86.9152 41.9021C86.3621 41.651 85.6468 41.4811 84.865 41.4811C83.4934 41.4811 82.6453 42.035 82.6453 43.0467V43.091C82.6453 43.9625 83.3606 44.4646 84.4004 44.4646C85.9049 44.4646 86.9152 43.6375 86.9152 42.4707V41.9021V41.9021Z" fill="black"/>
<path d="M98.6114 46.7244C95.2043 46.7244 92.7117 44.1028 92.7117 40.8608V40.8165C92.7117 37.5745 95.1822 34.9085 98.6556 34.9085C100.794 34.9085 102.122 35.6249 103.184 36.8138L101.215 38.9333C100.492 38.1727 99.7766 37.6853 98.6335 37.6853C97.0258 37.6853 95.8827 39.1032 95.8827 40.7796V40.8239C95.8827 42.5593 97.0037 43.9551 98.7589 43.9551C99.8355 43.9551 100.58 43.4898 101.362 42.7513L103.243 44.6566C102.144 45.8604 100.875 46.7318 98.6114 46.7318V46.7244Z" fill="black"/>
<path d="M113.029 46.4733V40.1445C113.029 38.6232 112.313 37.8404 111.082 37.8404C109.85 37.8404 109.076 38.6232 109.076 40.1445V46.4733H105.861V31.0167H109.076V36.7326C109.813 35.78 110.765 34.9159 112.395 34.9159C114.828 34.9159 116.244 36.5258 116.244 39.1327V46.4807H113.029V46.4733Z" fill="black"/>
<path d="M119.629 33.8747V31.0167H123.014V33.8747H119.629ZM119.71 46.4733V35.1227H122.926V46.4733H119.71Z" fill="black"/>
<path d="M133.648 46.4733V40.1445C133.648 38.6232 132.933 37.8404 131.701 37.8404C130.47 37.8404 129.695 38.6232 129.695 40.1445V46.4733H126.48V35.1227H129.695V36.7326C130.433 35.78 131.384 34.9159 133.014 34.9159C135.448 34.9159 136.864 36.5258 136.864 39.1327V46.4807H133.648V46.4733Z" fill="black"/>
<path d="M150.706 41.9168H142.822C143.139 43.379 144.157 44.1397 145.595 44.1397C146.672 44.1397 147.454 43.8 148.346 42.9729L150.182 44.6049C149.128 45.9195 147.601 46.7244 145.551 46.7244C142.144 46.7244 139.629 44.3317 139.629 40.8608V40.8165C139.629 37.5745 141.93 34.9085 145.234 34.9085C149.017 34.9085 150.75 37.8477 150.75 41.0676V41.1119C150.75 41.4294 150.728 41.6214 150.706 41.9168V41.9168ZM145.226 37.4933C143.892 37.4933 143.029 38.4459 142.771 39.9081H147.616C147.424 38.4681 146.576 37.4933 145.226 37.4933V37.4933Z" fill="black"/>
<path d="M67.1291 71.523C66.1409 71.523 65.1895 71.3975 64.2677 71.1538C63.3532 70.9027 62.6084 70.5851 62.0332 70.1937L63.1541 67.6681C63.6925 68.0152 64.3193 68.2958 65.0273 68.5247C65.7353 68.7537 66.4432 68.8644 67.1438 68.8644C67.6158 68.8644 67.9993 68.8201 68.2869 68.7315C68.5745 68.6429 68.781 68.5321 68.9137 68.3844C69.0465 68.2441 69.1128 68.0743 69.1128 67.8749C69.1128 67.5942 68.9875 67.3801 68.7367 67.2176C68.486 67.0551 68.1541 66.9222 67.7559 66.8188C67.3503 66.7154 66.9078 66.612 66.4137 66.5086C65.927 66.4053 65.4329 66.2723 64.9462 66.1099C64.4594 65.9474 64.0096 65.7406 63.604 65.4821C63.1984 65.2237 62.8739 64.884 62.6232 64.463C62.3724 64.0421 62.2397 63.5104 62.2397 62.8605C62.2397 62.1368 62.4388 61.4795 62.837 60.8887C63.2353 60.2979 63.8326 59.8253 64.6217 59.4708C65.4181 59.1163 66.4063 58.9317 67.5937 58.9317C68.3901 58.9317 69.1645 59.0203 69.9314 59.1976C70.6984 59.3748 71.3768 59.6407 71.9816 59.9878L70.927 62.5282C70.3518 62.218 69.7839 61.9817 69.2161 61.8266C68.6482 61.6715 68.1025 61.5903 67.5789 61.5903C67.1069 61.5903 66.7235 61.642 66.4358 61.738C66.1482 61.834 65.9417 61.9669 65.8164 62.1294C65.691 62.2919 65.6246 62.4765 65.6246 62.6833C65.6246 62.9491 65.75 63.1559 65.9934 63.3184C66.2367 63.4808 66.5686 63.599 66.9742 63.7024C67.3798 63.8058 67.8296 63.9018 68.3237 64.0052C68.8105 64.1085 69.3046 64.2415 69.7913 64.3966C70.278 64.5516 70.7279 64.7584 71.1261 65.0169C71.5317 65.2754 71.8562 65.6151 72.0996 66.036C72.3429 66.457 72.4683 66.9887 72.4683 67.6164C72.4683 68.318 72.2692 68.9678 71.8709 69.5586C71.4727 70.1494 70.8827 70.6294 70.0937 70.9839C69.3046 71.3384 68.309 71.523 67.1143 71.523H67.1291Z" fill="black"/>
<path d="M80.927 71.2793H77.5052V59.168H80.927V71.2793V71.2793ZM85.8311 66.5604H80.6836V63.7245H85.8311V66.5604ZM85.5878 59.1754H89.0096V71.2867H85.5878V59.1754Z" fill="black"/>
<path d="M100.986 71.523C100.02 71.523 99.1276 71.3679 98.309 71.0578C97.4904 70.7476 96.7824 70.3045 96.1777 69.7359C95.573 69.1672 95.101 68.5026 94.7692 67.7345C94.4373 66.9665 94.2677 66.1394 94.2677 65.2237C94.2677 64.3079 94.4373 63.4734 94.7692 62.7128C95.101 61.9521 95.573 61.2875 96.1777 60.7115C96.7824 60.1428 97.4904 59.6997 98.309 59.3896C99.1276 59.0794 100.02 58.9243 100.986 58.9243C101.952 58.9243 102.859 59.0794 103.67 59.3896C104.482 59.6997 105.19 60.1428 105.787 60.7115C106.384 61.2801 106.856 61.9448 107.195 62.7128C107.535 63.4734 107.704 64.3079 107.704 65.2237C107.704 66.1394 107.535 66.9739 107.195 67.7419C106.856 68.51 106.384 69.1746 105.787 69.7433C105.19 70.3119 104.482 70.7476 103.67 71.0578C102.859 71.3679 101.959 71.523 100.986 71.523V71.523ZM100.986 68.6872C101.443 68.6872 101.878 68.606 102.277 68.4435C102.675 68.281 103.021 68.0521 103.316 67.7419C103.611 67.4392 103.84 67.0699 104.01 66.6416C104.179 66.2133 104.26 65.7406 104.26 65.2237C104.26 64.7067 104.179 64.2193 104.01 63.7984C103.84 63.3774 103.611 63.0156 103.316 62.7054C103.021 62.4026 102.675 62.1663 102.277 62.0038C101.878 61.8414 101.451 61.7601 100.986 61.7601C100.521 61.7601 100.094 61.8414 99.7028 62.0038C99.3046 62.1663 98.958 62.4026 98.663 62.7054C98.368 63.0082 98.1394 63.3774 97.9698 63.7984C97.8002 64.2193 97.719 64.692 97.719 65.2237C97.719 65.7554 97.8002 66.2133 97.9698 66.6416C98.1394 67.0699 98.368 67.4318 98.663 67.7419C98.958 68.0447 99.3046 68.281 99.7028 68.4435C100.101 68.606 100.529 68.6872 100.986 68.6872Z" fill="black"/>
<path d="M112.955 71.2793V59.168H118.486C119.592 59.168 120.544 59.3453 121.347 59.7071C122.151 60.0616 122.763 60.5786 123.206 61.258C123.641 61.93 123.862 62.735 123.862 63.6507C123.862 64.5664 123.641 65.3492 123.206 66.0213C122.771 66.6933 122.151 67.2028 121.347 67.5721C120.551 67.934 119.592 68.1186 118.486 68.1186H114.858L116.377 66.6342V71.2867H112.955V71.2793ZM116.377 66.9887L114.858 65.4157H118.28C118.995 65.4157 119.526 65.2606 119.88 64.9504C120.234 64.6403 120.403 64.2046 120.403 63.6507C120.403 63.0968 120.226 62.6463 119.88 62.3362C119.526 62.026 118.995 61.8709 118.28 61.8709H114.858L116.377 60.2979V66.9887V66.9887Z" fill="black"/>
</svg>




